<svg xmlns="http://www.w3.org/2000/svg" width="475.198" height="462.439" viewBox="0 0 475.198 462.439">
	<g id="Group_11" data-name="Group 11" transform="translate(-1374.755 -1217.623)">
		<path id="Path_7" data-name="Path 7" d="M1668.422,1434.5c17.4,61.886,30,197.578-72.727,229.392s-186.443-63.5-186.443-155.029" transform="translate(16 -10.142)" fill="none" stroke="#026c1a" stroke-width="40" />
		<g id="Group_8" data-name="Group 8" transform="translate(1429.555 1217.623)">
			<path id="Path_1" data-name="Path 1" d="M270.487,279.809c24.033-26.7,90.062-33.2,111.72,0s-25.086,132.8-25.086,132.8,60.565-85.881,96.587-92.382,65.377,26.454,47.5,66.375-119,93.311-119,93.311,101.128,10.515,119,41.038-9,77.219-47.5,81.052-106.5-65.722-106.5-65.722-13.269,85.015-50.888,101.445S203.193,631.195,196.734,602s73.753-81.052,73.753-81.052-117.332,20.818-156.443,0-34.355-62.454,0-83.272,137.42,0,137.42,0-111.447-56.671-125.129-96.138,30.463-73,70.4-61.73S286.077,386.6,286.077,386.6,246.455,306.506,270.487,279.809Z" transform="translate(-86.466 -257.281)" fill="#eda93d" />
			<ellipse id="Ellipse_1" data-name="Ellipse 1" cx="68.01" cy="68.01" rx="68.01" ry="68.01" transform="translate(174.962 143.364)" fill="#d54545" />
			<path id="Path_2" data-name="Path 2" d="M347.69,424.176c-5.777,1.271-8.1,7.076-6.875,14.28S346.82,454.266,352.6,453s12.551-12.417,11.325-19.622S353.467,422.905,347.69,424.176Z" transform="translate(-163.661 -262.463)" fill="#fff" />
			<path id="Path_3" data-name="Path 3" d="M411.3,421.947c-6-.607-8.81,8.808-8.291,19.122s4.365,21.527,10.366,22.135,14.158-9.391,13.639-19.706S417.3,422.554,411.3,421.947Z" transform="translate(-163.04 -232.617)" fill="#fff" />
			<path id="Path_4" data-name="Path 4" d="M7.612.2c8.471,1.41,12.3,17.069,31.118,20.879S72.5,12.306,82.883,15.441s8.41,11.454-2.629,18.179S57.582,41.5,38.73,36.956,12.624,25.976,4.844,15.441-.86-1.209,7.612.2Z" transform="matrix(0.985, 0.174, -0.174, 0.985, 159.687, 211.185)" fill="#6b22ce" />
			<path id="Path_5" data-name="Path 5" d="M347.728,426.012c-2.325,1.065-3.668,6.9-2.991,10.356s3.375,4.527,5.7,3.463a7.151,7.151,0,0,0,3.6-7.721C353.361,428.655,350.053,424.947,347.728,426.012Z" transform="translate(-165.553 -260.562)" />
			<path id="Path_6" data-name="Path 6" d="M347.728,426.012c-2.325,1.065-3.668,6.9-2.991,10.356s3.375,4.527,5.7,3.463a7.151,7.151,0,0,0,3.6-7.721C353.361,428.655,350.053,424.947,347.728,426.012Z" transform="translate(-102.871 -230.267)" />
		</g>
		<g id="Group_10" data-name="Group 10" transform="translate(1049.996 92.702)">
			<path id="Icon_awesome-coffee" data-name="Icon awesome-coffee" d="M32.883,62.525H65.76A16.443,16.443,0,0,0,82.2,46.086h5.48a21.918,21.918,0,1,0,0-43.836H20.554a4.1,4.1,0,0,0-4.11,4.11V46.086A16.443,16.443,0,0,0,32.883,62.525Zm54.8-49.316a10.959,10.959,0,0,1,0,21.918H82.2V13.209Zm8.168,65.754H8.276C.126,78.964-2.169,68,2.112,68h99.882c4.281,0,2.021,10.959-6.147,10.959Z" transform="translate(324.763 1329.409)" fill="#6b22ce" />
		</g>
	</g>
</svg>
