<svg xmlns="http://www.w3.org/2000/svg" width="556.329" height="510.719" viewBox="0 0 556.329 510.719">
	<g id="Group_1" data-name="Group 1" transform="translate(-112.466 -209.281)">
		<path id="Path_1" data-name="Path 1" d="M329.988,287.092c31.8-35.33,119.182-43.934,147.844,0s-33.2,175.737-33.2,175.737S524.783,349.18,572.452,340.576s86.516,35.007,62.861,87.837S477.832,551.9,477.832,551.9,611.659,565.811,635.314,606.2,623.4,708.39,572.452,713.462,431.517,626.49,431.517,626.49s-17.56,112.5-67.342,134.246-123.24-8.64-131.787-47.274,97.6-107.259,97.6-107.259-155.27,27.549-207.027,0-45.463-82.648,0-110.2,181.853,0,181.853,0-147.482-75-165.588-127.223,40.313-96.6,93.162-81.69S350.619,428.413,350.619,428.413,298.185,322.423,329.988,287.092Z" transform="translate(26 -48)" fill="#6b22ce" />
		<circle id="Ellipse_1" data-name="Ellipse 1" cx="90" cy="90" r="90" transform="translate(344 399)" fill="#eda93d" />
		<path id="Path_2" data-name="Path 2" d="M350.016,424.263c-7.644,1.682-10.722,9.363-9.1,18.9s7.947,20.921,15.592,19.239,16.61-16.432,14.986-25.966S357.661,422.581,350.016,424.263Z" transform="translate(5.983 -0.981)" fill="#fff" />
		<path id="Path_3" data-name="Path 3" d="M414,421.956c-7.942-.8-11.658,11.656-10.972,25.3s5.776,28.488,13.717,29.292,18.735-12.428,18.049-26.077S421.944,422.759,414,421.956Z" transform="translate(26.997 37.873)" fill="#fff" />
		<path id="Path_4" data-name="Path 4" d="M10.073.266C21.283,2.131,26.35,22.853,51.253,27.9s44.692-11.61,58.429-7.462S120.811,35.59,106.2,44.49s-30,10.43-54.951,4.416S16.706,34.375,6.411,20.433-1.138-1.6,10.073.266Z" transform="matrix(0.985, 0.174, -0.174, 0.985, 323.785, 488.751)" fill="#d54545" />
		<path id="Path_5" data-name="Path 5" d="M348.752,426.072c-3.077,1.409-4.854,9.133-3.958,13.7s4.467,5.991,7.544,4.582,5.661-5.646,4.764-10.218S351.829,424.663,348.752,426.072Z" transform="translate(4.793 2.156)" />
		<path id="Path_6" data-name="Path 6" d="M348.752,426.072c-3.077,1.409-4.854,9.133-3.958,13.7s4.467,5.991,7.544,4.582,5.661-5.646,4.764-10.218S351.829,424.663,348.752,426.072Z" transform="translate(87.742 42.246)" />
	</g>
</svg>
