<svg xmlns="http://www.w3.org/2000/svg" width="465.847" height="500.42" viewBox="0 0 465.847 500.42">
  <g id="Group_17" data-name="Group 17" transform="translate(-2010.507 -1080)">
    <g id="Group_12" data-name="Group 12" transform="translate(626.4 -137.623)">
      <path id="Path_7" data-name="Path 7" d="M1668.422,1434.5c17.4,61.886,59.251,195.559-46.2,237.25-103.97,41.107-202.935-52.734-209.148-83.725-.042-.2-.117-.634-.182-1.062" transform="translate(16 -10.142)" fill="none" stroke="#026c1a" stroke-width="40"/>
      <g id="Group_8" data-name="Group 8" transform="translate(1429.555 1217.623)">
        <path id="Path_1" data-name="Path 1" d="M270.487,279.809c24.033-26.7,90.062-33.2,111.72,0s-25.086,132.8-25.086,132.8,60.565-85.881,96.587-92.382,65.377,26.454,47.5,66.375-119,93.311-119,93.311,101.128,10.515,119,41.038-9,77.219-47.5,81.052-106.5-65.722-106.5-65.722-13.269,85.015-50.888,101.445S203.193,631.195,196.734,602s73.753-81.052,73.753-81.052-117.332,20.818-156.443,0-34.355-62.454,0-83.272,137.42,0,137.42,0-111.447-56.671-125.129-96.138,30.463-73,70.4-61.73S286.077,386.6,286.077,386.6,246.455,306.506,270.487,279.809Z" transform="translate(-86.466 -257.281)" fill="#6b22ce"/>
        <path id="Path_8" data-name="Path 8" d="M68.01,0A68.01,68.01,0,1,1,0,68.01,68.01,68.01,0,0,1,68.01,0Z" transform="translate(174.962 143.364)" fill="#eda93d"/>
        <path id="Path_2" data-name="Path 2" d="M347.69,424.176c-5.777,1.271-8.1,7.076-6.875,14.28S346.82,454.266,352.6,453s12.551-12.417,11.325-19.622S353.467,422.905,347.69,424.176Z" transform="translate(-177.32 -245.548)" fill="#fff"/>
        <path id="Path_3" data-name="Path 3" d="M411.3,421.947c-6-.607-8.81,8.808-8.291,19.122s4.365,21.527,10.366,22.135,14.158-9.391,13.639-19.706S417.3,422.554,411.3,421.947Z" transform="translate(-179.022 -224.717)" fill="#fff"/>
        <path id="Path_4" data-name="Path 4" d="M7.612.2c8.471,1.41,12.3,17.069,31.118,20.879S72.5,12.306,82.883,15.441s8.41,11.454-2.629,18.179S57.582,41.5,38.73,36.956,12.624,25.976,4.844,15.441-.86-1.209,7.612.2Z" transform="matrix(0.985, 0.174, -0.174, 0.985, 154.641, 217.858)" fill="#d54545"/>
        <path id="Path_5" data-name="Path 5" d="M347.728,426.012c-2.325,1.065-3.668,6.9-2.991,10.356s3.375,4.527,5.7,3.463a7.151,7.151,0,0,0,3.6-7.721C353.361,428.655,350.053,424.947,347.728,426.012Z" transform="translate(-179.213 -243.647)"/>
        <path id="Path_6" data-name="Path 6" d="M347.728,426.012c-2.325,1.065-3.668,6.9-2.991,10.356s3.375,4.527,5.7,3.463a7.151,7.151,0,0,0,3.6-7.721C353.361,428.655,350.053,424.947,347.728,426.012Z" transform="translate(-118.853 -222.367)"/>
      </g>
      <path id="Path_9" data-name="Path 9" d="M208.447,528.17s-55.322,11.259-94.4-7.221-34.355-62.454,0-83.272,90.379-6.29,91.268-5.976S228.793,497.765,208.447,528.17Z" transform="translate(1343.09 960.341)" fill="#d54545"/>
    </g>
    <g id="Group_14" data-name="Group 14" transform="translate(-82.775 535.167) rotate(-10)">
      <path id="Icon_awesome-paint-brush" data-name="Icon awesome-paint-brush" d="M62.195,0a14.284,14.284,0,0,0-9.406,3.848C4.975,46.56,0,47.564,0,60.137a21.655,21.655,0,0,0,2.042,9.052L16.97,81.628a21.523,21.523,0,0,0,5.237.709c14.528,0,22.949-10.636,49.393-59.989,1.726-3.357,3.251-6.982,3.251-10.758C74.852,4.828,68.77,0,62.195,0Z" transform="translate(1984.123 1312.386) rotate(180)" stroke="#000" stroke-width="1"/>
      <path id="Icon_awesome-paint-brush-2" data-name="Icon awesome-paint-brush" d="M39.07,0c-9.385.6-17.9,4.178-22.734,16.912a3.57,3.57,0,0,1-3.413,2.334c-2.6,0-10.634-6.472-12.924-8.035C0,30.474,8.875,47.4,29.943,47.4c17.745,0,29.941-10.238,29.941-28.114a20.267,20.267,0,0,0-.227-2.136L39.07,0Z" transform="translate(2029.037 1240.027) rotate(180)" fill="#d54545"/>
    </g>
    <g id="Group_16" data-name="Group 16" transform="translate(1090 121)">
      <path id="Icon_map-art-gallery" data-name="Icon map-art-gallery" d="M54.355,4.32C20.833,4.32.72,31.21.72,44.657s6.7,23.531,20.113,23.531,20.115,3.36,20.115,13.444c0,13.444,10.055,23.528,23.464,23.528,43.58,0,63.69-23.528,63.69-47.056C128.1,17.767,94.572,4.32,54.355,4.32Z" transform="translate(1063.589 1354.26)" fill="#fff"/>
    </g>
    <g id="Group_15" data-name="Group 15" transform="translate(1213 191)">
      <path id="Icon_map-art-gallery-2" data-name="Icon map-art-gallery" d="M54.355,4.32C20.833,4.32.72,31.21.72,44.657s6.7,23.531,20.113,23.531,20.115,3.36,20.115,13.444c0,13.444,10.055,23.528,23.464,23.528,43.58,0,63.69-23.528,63.69-47.056C128.1,17.767,94.572,4.32,54.355,4.32ZM45.974,17.767a8.4,8.4,0,1,1-8.381,8.4,8.391,8.391,0,0,1,8.381-8.4Zm26.813,0a8.4,8.4,0,1,1-8.378,8.4,8.391,8.391,0,0,1,8.378-8.4ZM99.607,31.21a8.4,8.4,0,1,1-8.378,8.4A8.391,8.391,0,0,1,99.607,31.21Zm-77.1,6.725a8.4,8.4,0,1,1-8.381,8.4,8.386,8.386,0,0,1,8.381-8.4Zm41.9,33.612A10.084,10.084,0,1,1,54.355,81.634,10.067,10.067,0,0,1,64.41,71.547Z" transform="translate(940.589 1284.26)" fill="#d54545"/>
    </g>
  </g>
</svg>
