<svg xmlns="http://www.w3.org/2000/svg" width="468.743" height="500.42" viewBox="0 0 468.743 500.42">
  <g id="Group_22" data-name="Group 22" transform="translate(-1994.579 -1188.623)">
    <g id="Group_17" data-name="Group 17" transform="translate(-13.032 108.623)">
      <g id="Group_12" data-name="Group 12" transform="translate(626.4 -137.623)">
        <path id="Path_7" data-name="Path 7" d="M1668.422,1434.5c17.4,61.886,59.251,195.559-46.2,237.25-103.97,41.107-202.935-52.734-209.148-83.725-.042-.2-.117-.634-.182-1.062" transform="translate(16 -10.142)" fill="none" stroke="#026c1a" stroke-width="40"/>
        <g id="Group_8" data-name="Group 8" transform="translate(1429.555 1217.623)">
          <path id="Path_1" data-name="Path 1" d="M270.487,279.809c24.033-26.7,90.062-33.2,111.72,0s-25.086,132.8-25.086,132.8,60.565-85.881,96.587-92.382,65.377,26.454,47.5,66.375-119,93.311-119,93.311,101.128,10.515,119,41.038-9,77.219-47.5,81.052-106.5-65.722-106.5-65.722-13.269,85.015-50.888,101.445S203.193,631.195,196.734,602s73.753-81.052,73.753-81.052-117.332,20.818-156.443,0-34.355-62.454,0-83.272,137.42,0,137.42,0-111.447-56.671-125.129-96.138,30.463-73,70.4-61.73S286.077,386.6,286.077,386.6,246.455,306.506,270.487,279.809Z" transform="translate(-86.466 -257.281)" fill="#6b22ce"/>
          <path id="Path_8" data-name="Path 8" d="M68.01,0A68.01,68.01,0,1,1,0,68.01,68.01,68.01,0,0,1,68.01,0Z" transform="translate(174.962 143.364)" fill="#eda93d"/>
          <path id="Path_2" data-name="Path 2" d="M347.69,424.176c-5.777,1.271-8.1,7.076-6.875,14.28S346.82,454.266,352.6,453s12.551-12.417,11.325-19.622S353.467,422.905,347.69,424.176Z" transform="translate(-177.32 -245.548)" fill="#fff"/>
          <path id="Path_3" data-name="Path 3" d="M411.3,421.947c-6-.607-8.81,8.808-8.291,19.122s4.365,21.527,10.366,22.135,14.158-9.391,13.639-19.706S417.3,422.554,411.3,421.947Z" transform="translate(-179.022 -224.717)" fill="#fff"/>
          <path id="Path_4" data-name="Path 4" d="M7.612.2c8.471,1.41,12.3,17.069,31.118,20.879S72.5,12.306,82.883,15.441s8.41,11.454-2.629,18.179S57.582,41.5,38.73,36.956,12.624,25.976,4.844,15.441-.86-1.209,7.612.2Z" transform="matrix(0.985, 0.174, -0.174, 0.985, 154.641, 217.858)" fill="#d54545"/>
          <path id="Path_5" data-name="Path 5" d="M347.728,426.012c-2.325,1.065-3.668,6.9-2.991,10.356s3.375,4.527,5.7,3.463a7.151,7.151,0,0,0,3.6-7.721C353.361,428.655,350.053,424.947,347.728,426.012Z" transform="translate(-179.213 -243.647)"/>
          <path id="Path_6" data-name="Path 6" d="M347.728,426.012c-2.325,1.065-3.668,6.9-2.991,10.356s3.375,4.527,5.7,3.463a7.151,7.151,0,0,0,3.6-7.721C353.361,428.655,350.053,424.947,347.728,426.012Z" transform="translate(-118.853 -222.367)"/>
        </g>
        <path id="Path_9" data-name="Path 9" d="M202.463,530.339s10.061,36.452-2.931,36.432,3.479-35.8-2.854-35.259c-3.273.279-10.234.419-14.788.531-1.567.039,5.874,17.51-3.082,17.153s.221-17.051-2.923-17.153c-18.623-.606-45.77-3.494-61.842-11.094-39.081-18.48-34.355-62.454,0-83.272s90.379-6.29,91.268-5.976S222.81,499.933,202.463,530.339Z" transform="translate(1343.09 960.341)" fill="#d54545"/>
      </g>
      <g id="Group_14" data-name="Group 14" transform="translate(-82.775 535.167) rotate(-10)">
        <g id="Icon_awesome-paint-brush" data-name="Icon awesome-paint-brush" transform="translate(1984.123 1312.386) rotate(180)" fill="#793f05">
          <path d="M 22.2076530456543 83.83719635009766 C 20.46973609924316 83.83719635009766 18.63774871826172 83.59074401855469 16.60701751708984 83.08375549316406 L 15.89515972137451 82.90604400634766 L 15.59846591949463 82.23500823974609 C 15.58050060272217 82.19465637207031 13.6883716583252 77.99951171875 10.28518295288086 75.16371154785156 C 6.821594715118408 72.27757263183594 1.645865440368652 70.63672637939453 1.593983054161072 70.62049102783203 L 0.9571360349655151 70.42115020751953 L 0.678783118724823 69.81465148925781 C -0.7669463157653809 66.66464233398438 -1.499993324279785 63.40846633911133 -1.499993324279785 60.13655853271484 C -1.499993324279785 57.19679260253906 -1.214828610420227 55.10686492919922 -0.5464874505996704 53.14838409423828 C 0.2081360518932343 50.93705368041992 1.458524227142334 48.85945129394531 3.507806539535522 46.41191101074219 C 7.464853763580322 41.68585205078125 14.39202976226807 35.62697219848633 26.96746635437012 24.62780570983887 C 33.54928970336914 18.87099456787109 41.74057006835938 11.70644187927246 51.79005432128906 2.729206085205078 C 54.82414627075195 0.002994360402226448 58.52051162719727 -1.499993920326233 62.19498443603516 -1.499993920326233 C 63.99973678588867 -1.499993920326233 65.77497100830078 -1.178735017776489 67.47140502929688 -0.5451585650444031 C 69.15053558349609 0.08197083324193954 70.66668701171875 0.982382595539093 71.97772216796875 2.131076812744141 C 74.79851531982422 4.6025710105896 76.35199737548828 7.961947441101074 76.35199737548828 11.59037113189697 C 76.35199737548828 15.81882953643799 74.62445068359375 19.74807739257812 72.93454742431641 23.03401756286621 L 72.92875671386719 23.0452766418457 L 72.92278289794922 23.05642890930176 C 65.70180511474609 36.53324127197266 60.50059509277344 45.86399459838867 56.05821990966797 53.31067657470703 C 51.15719604492188 61.52618408203125 47.19740676879883 67.40135955810547 43.59651184082031 71.80019378662109 C 39.88966369628906 76.32846832275391 36.53951263427734 79.32211303710938 33.05338287353516 81.22138214111328 C 29.77768898010254 83.00600433349609 26.33138275146484 83.83719635009766 22.2076530456543 83.83719635009766 Z" stroke="none"/>
          <path d="M 62.19498062133789 -7.62939453125e-06 C 58.64886093139648 -7.62939453125e-06 55.32496643066406 1.569557189941406 52.78935241699219 3.847862243652344 C 4.975326538085938 46.56027603149414 -7.62939453125e-06 47.56376647949219 -7.62939453125e-06 60.13655471801758 C -7.62939453125e-06 63.34115600585938 0.760223388671875 66.39605712890625 2.042045593261719 69.18896484375 C 2.042045593261719 69.18896484375 7.513351440429688 70.90147399902344 11.24542236328125 74.01133728027344 C 14.97748947143555 77.12120819091797 16.97034072875977 81.62843322753906 16.97034072875977 81.62843322753906 C 18.6568603515625 82.04947662353516 20.39482116699219 82.33718109130859 22.20764923095703 82.33718109130859 C 36.73595428466797 82.33718109130859 45.15680694580078 71.70117950439453 71.60060882568359 22.34799575805664 C 73.32687377929688 18.99135589599609 74.85198211669922 15.36571502685547 74.85198211669922 11.59035491943359 C 74.85198211669922 4.827957153320312 68.770263671875 -7.62939453125e-06 62.19498062133789 -7.62939453125e-06 M 62.19498062133789 -3.000007629394531 C 64.17952728271484 -3.000007629394531 66.13134002685547 -2.646858215332031 67.99620819091797 -1.950363159179688 C 69.84600830078125 -1.259498596191406 71.51816558837891 -0.2658843994140625 72.96622467041016 1.002845764160156 C 76.11685180664062 3.763343811035156 77.85198211669922 7.523391723632812 77.85198211669922 11.59035491943359 C 77.85198211669922 16.13882446289062 76.04048919677734 20.27443313598633 74.26847839355469 23.72003555297852 L 74.24494171142578 23.76484680175781 C 67.01270294189453 37.26269912719727 61.80101013183594 46.61196899414062 57.34640884399414 54.07913970947266 C 52.40650177001953 62.35984802246094 48.40619659423828 68.29273986816406 44.75720977783203 72.75032806396484 C 40.92368698120117 77.43334197998047 37.43275451660156 80.54362487792969 33.7710075378418 82.53856658935547 C 30.26639556884766 84.44789886474609 26.59206008911133 85.33718109130859 22.20764923095703 85.33718109130859 C 20.34563446044922 85.33718109130859 18.39480972290039 85.07612609863281 16.24368667602539 84.53910064697266 L 14.81082153320312 84.18138122558594 L 14.22786712646484 82.84455871582031 C 14.16221618652344 82.70035552978516 12.39993286132812 78.87840270996094 9.324943542480469 76.31606292724609 C 6.111457824707031 73.63832855224609 1.191902160644531 72.06651306152344 1.142578125 72.05095672607422 L -0.1311264038085938 71.65229034423828 L -0.6845016479492188 70.44033813476562 C -2.220954895019531 67.09263610839844 -3.000007629394531 63.62593841552734 -3.000007629394531 60.13655471801758 C -3.000007629394531 54.76096725463867 -2.146194458007812 50.82815551757812 2.357704162597656 45.44896697998047 C 6.389564514160156 40.63355255126953 13.347900390625 34.54740905761719 25.97988891601562 23.498779296875 C 32.55868530273438 17.74459838867188 40.74652862548828 10.58306121826172 50.78932952880859 1.61181640625 C 54.10152816772461 -1.362319946289062 58.15175628662109 -3.000007629394531 62.19498062133789 -3.000007629394531 Z" stroke="none" fill="#fff"/>
        </g>
        <path id="Icon_awesome-paint-brush-2" data-name="Icon awesome-paint-brush" d="M39.07,0c-9.385.6-17.9,4.178-22.734,16.912a3.57,3.57,0,0,1-3.413,2.334c-2.6,0-10.634-6.472-12.924-8.035C0,30.474,8.875,47.4,29.943,47.4c17.745,0,29.941-10.238,29.941-28.114a20.267,20.267,0,0,0-.227-2.136s-1.616-7.822-6.763-12.11S39.07,0,39.07,0Z" transform="translate(2029.037 1240.027) rotate(180)" fill="#d54545"/>
      </g>
      <g id="Group_16" data-name="Group 16" transform="translate(1090 121)">
        <path id="Icon_map-art-gallery" data-name="Icon map-art-gallery" d="M54.355,4.32C20.833,4.32.72,31.21.72,44.657s6.7,23.531,20.113,23.531,20.115,3.36,20.115,13.444c0,13.444,10.055,23.528,23.464,23.528,43.58,0,63.69-23.528,63.69-47.056C128.1,17.767,94.572,4.32,54.355,4.32Z" transform="translate(1063.589 1354.26)" fill="#fff"/>
      </g>
      <g id="Group_15" data-name="Group 15" transform="translate(1213 191)">
        <path id="Icon_map-art-gallery-2" data-name="Icon map-art-gallery" d="M54.355,4.32C20.833,4.32.72,31.21.72,44.657s6.7,23.531,20.113,23.531,20.115,3.36,20.115,13.444c0,13.444,10.055,23.528,23.464,23.528,43.58,0,63.69-23.528,63.69-47.056C128.1,17.767,94.572,4.32,54.355,4.32ZM45.974,17.767a8.4,8.4,0,1,1-8.381,8.4,8.391,8.391,0,0,1,8.381-8.4Zm26.813,0a8.4,8.4,0,1,1-8.378,8.4,8.391,8.391,0,0,1,8.378-8.4ZM99.607,31.21a8.4,8.4,0,1,1-8.378,8.4A8.391,8.391,0,0,1,99.607,31.21Zm-77.1,6.725a8.4,8.4,0,1,1-8.381,8.4,8.386,8.386,0,0,1,8.381-8.4Zm41.9,33.612A10.084,10.084,0,1,1,54.355,81.634,10.067,10.067,0,0,1,64.41,71.547Z" transform="translate(940.589 1284.26)" fill="#d54545"/>
      </g>
    </g>
    <path id="Path_11" data-name="Path 11" d="M2.4,0,4.927,9.817S6.295,15.2,2.4,15.169-.135,9.817-.135,9.817Z" transform="translate(2139 1500)" fill="#d54545"/>
  </g>
</svg>
